# xmcd
#
# Track frame offsets:
#	150
#	32987
#	44940
#	64792
#	82318
#	103285
#	128020
#	151167
#	175895
#	194890
#	210361
#	233334
#
# Disc length: 3409 seconds
#
# Revision: 0
# Processed by: cddbd v1.4PL0 Copyright (c) Steve Scherf et al.
# Submitted via: dBpowerAMP V4.0
#
DISCID=ad0d4f0c
DTITLE=SP Balu - Osi Manasa I
DYEAR=1900
DGENRE=Blue
TTITLE0=Neti Siddhartha - Osi Manasa
TTITLE1=Chanti - Jabiliki Vennelaki
TTITLE2=Sindhurapuvvu - Sindhura Puvva
TTITLE3=Pelli Pusthakam - Sreerasthu Shubhamasthu
TTITLE4=Cooli No. 1 - Kotha Kothaga
TTITLE5=Guna - Kammani E Premalekha
TTITLE6=Iddaru Iddare - Onamalu Nerpaalani
TTITLE7=Dalapathi - Singarala
TTITLE8=Janaki Ramudu - Naagonthu Sruthilona
TTITLE9=Swathikiranam - Shivani Bhavani
TTITLE10=Sruthilayalu - Enniraasula Uniki
TTITLE11=Aditya 369 - Janavule Nerajanavule
EXTD=
EXTT0=
EXTT1=
EXTT2=
EXTT3=
EXTT4=
EXTT5=
EXTT6=
EXTT7=
EXTT8=
EXTT9=
EXTT10=
EXTT11=
PLAYORDER=
